<svg preserveAspectRatio="none" width="100%" height="100%" overflow="visible" style="display: block;" viewBox="0 0 17.9961 12" fill="none" xmlns="http://www.w3.org/2000/svg">
<g id="Vector">
<path d="M3.47716 7.76026H1.06034V8.99862H3.07382V9.92057H1.06034V12H0V6.83831H3.47716V7.76026Z" fill="var(--fill-0, #0FFFB2)"/>
<path fill-rule="evenodd" clip-rule="evenodd" d="M6.53294 6.83831C6.91494 6.83831 7.2534 6.90903 7.54764 7.05161C7.84186 7.19419 8.07131 7.39125 8.23649 7.64198C8.40159 7.88769 8.48478 8.17509 8.48486 8.50429C8.48486 8.82878 8.39608 9.11902 8.22057 9.37468C8.05028 9.62534 7.81612 9.82248 7.51686 9.96505C7.49399 9.97556 7.4691 9.98263 7.44574 9.99234L8.70138 12H7.50094L6.39389 10.1713H5.58086V12H4.51945V6.83831H6.53294ZM5.58086 9.24932H6.54037C6.70039 9.24932 6.84316 9.2172 6.96705 9.15329C7.09579 9.08943 7.19632 9.00127 7.26849 8.88843C7.34592 8.77535 7.38524 8.64687 7.38524 8.50429C7.38512 8.28332 7.29959 8.10403 7.12945 7.96648C6.96426 7.82882 6.74951 7.76026 6.48624 7.76026H5.58086V9.24932Z" fill="var(--fill-0, #0FFFB2)"/>
<path d="M13.1731 7.76026H10.804V8.93291H12.8483V9.83262H10.804V11.0791H13.2039V12H9.74262V6.83831H13.1731V7.76026Z" fill="var(--fill-0, #0FFFB2)"/>
<path d="M17.9653 7.76026H15.5963V8.93291H17.6395V9.83262H15.5963V11.0791H17.9961V12H14.5349V6.83831H17.9653V7.76026Z" fill="var(--fill-0, #0FFFB2)"/>
<path fill-rule="evenodd" clip-rule="evenodd" d="M6.9953 0C7.54406 8.26641e-06 8.02575 0.116041 8.43992 0.347771C8.8592 0.574549 9.18756 0.890547 9.42571 1.29476C9.66382 1.69408 9.78335 2.15519 9.78341 2.67773C9.78341 3.19551 9.66388 3.65736 9.42571 4.06172C9.19275 4.46091 8.86657 4.77602 8.44737 5.00769C8.03321 5.2345 7.55711 5.34834 7.01872 5.34837C6.4699 5.34837 5.98269 5.23453 5.55813 5.00769C5.13909 4.77602 4.8104 4.46082 4.57233 4.06172C4.33417 3.65736 4.21464 3.19551 4.21464 2.67773C4.2147 2.15027 4.33423 1.68698 4.57233 1.28766C4.8105 0.883308 5.13647 0.567507 5.55067 0.340673C5.97005 0.113847 6.45166 0 6.9953 0ZM6.9953 0.924685C6.66916 0.924685 6.37694 1.00202 6.11809 1.15484C5.86443 1.30275 5.66477 1.50696 5.5198 1.76826C5.37489 2.02951 5.30269 2.33272 5.30263 2.67773C5.30263 3.01787 5.37493 3.31882 5.5198 3.58011C5.66477 3.84146 5.86667 4.04877 6.12554 4.20164C6.38442 4.34957 6.68218 4.42368 7.01872 4.42368C7.35001 4.42366 7.63999 4.34954 7.88847 4.20164C8.14209 4.04878 8.33848 3.8414 8.47825 3.58011C8.62315 3.3188 8.69648 3.0179 8.69648 2.67773C8.69643 2.33272 8.62316 2.02951 8.47825 1.76826C8.33338 1.50718 8.13441 1.30272 7.88102 1.15484C7.62733 1.00198 7.33182 0.924693 6.9953 0.924685Z" fill="var(--fill-0, #0FFFB2)"/>
<path d="M3.48754 1.00681H1.06351V2.24885H3.083V3.17353H1.06351V5.25914H0V0.0821266H3.48754V1.00681Z" fill="var(--fill-0, #0FFFB2)"/>
<path fill-rule="evenodd" clip-rule="evenodd" d="M12.8983 0.0821266C13.2815 0.0821266 13.621 0.153058 13.9161 0.296061C14.2112 0.439063 14.4413 0.636699 14.607 0.888184C14.7726 1.13462 14.856 1.42286 14.8561 1.75305C14.8561 2.07832 14.7679 2.36971 14.5921 2.62602C14.4213 2.87744 14.1854 3.07515 13.8852 3.21815C13.8623 3.2287 13.8373 3.23577 13.8139 3.24552L15.0733 5.25914H13.8692L12.7589 3.42498H11.9434V5.25914H10.8789V0.0821266H12.8983ZM11.9434 2.5003H12.9058C13.0663 2.5003 13.2095 2.46808 13.3338 2.40398C13.4629 2.33993 13.5637 2.25151 13.6361 2.13833C13.7138 2.02492 13.7532 1.89605 13.7532 1.75305C13.7531 1.53141 13.6673 1.35161 13.4966 1.21365C13.331 1.07558 13.1156 1.00681 12.8515 1.00681H11.9434V2.5003Z" fill="var(--fill-0, #0FFFB2)"/>
</g>
</svg>
