<svg preserveAspectRatio="none" width="100%" height="100%" overflow="visible" style="display: block;" viewBox="0 0 18.6449 19.1186" fill="none" xmlns="http://www.w3.org/2000/svg">
<g id="Group">
<path id="Vector" d="M9.32488 0.129411C13.9739 0.129411 17.8123 3.61372 18.3641 8.11379C18.4666 8.65585 18.5179 9.21744 18.5179 9.79124C18.5179 14.8724 14.4012 18.9891 9.32243 18.9891C4.24368 18.9891 0.126973 14.8724 0.126973 9.79124C0.126973 9.21744 0.180692 8.65585 0.280802 8.11379C0.835069 3.61128 4.67099 0.129411 9.32 0.129411M9.32488 0C4.6661 0 0.72519 3.48187 0.156273 8.09914C0.0537211 8.64364 0 9.215 0 9.79124C0 14.9335 4.18264 19.1186 9.32243 19.1186C14.4622 19.1186 18.6449 14.9359 18.6449 9.79124C18.6449 9.215 18.5912 8.64364 18.4886 8.08937C17.9221 3.47943 13.9812 0 9.32243 0H9.32488Z" fill="var(--fill-0, #002811)"/>
<path id="Vector_2" d="M9.32546 18.9891C14.404 18.9891 18.5209 14.8722 18.5209 9.79365C18.5209 4.71513 14.404 0.598183 9.32546 0.598183C4.24694 0.598183 0.13 4.71513 0.13 9.79365C0.13 14.8722 4.24694 18.9891 9.32546 18.9891Z" fill="var(--fill-0, #005937)"/>
<path id="Vector_3" d="M9.32399 18.3494C14.3553 18.3494 18.434 14.2708 18.434 9.23944C18.434 4.20812 14.3553 0.129433 9.32399 0.129433C4.29267 0.129433 0.213984 4.20812 0.213984 9.23944C0.213984 14.2708 4.29267 18.3494 9.32399 18.3494Z" fill="var(--fill-0, #0FFFB2)"/>
<path id="Vector_4" d="M0.460599 9.37861C0.460599 12.7238 2.26258 15.6465 4.94846 17.2287C2.12584 15.6831 0.213984 12.6822 0.213984 9.237C0.213984 4.20708 4.29163 0.126992 9.32399 0.126992C11.0429 0.126992 12.6496 0.603124 14.0218 1.43086C12.7057 0.688584 11.1846 0.268611 9.5706 0.268611C4.54069 0.268611 0.460599 4.34626 0.460599 9.37861Z" fill="var(--fill-0, #F3F3F3)"/>
<path id="Vector_5" d="M9.32431 1.5772C13.5558 1.5772 16.9864 5.0078 16.9864 9.23928C16.9864 13.4708 13.5558 16.9013 9.32431 16.9013C5.09283 16.9013 1.66223 13.4708 1.66223 9.23928C1.66223 5.0078 5.09283 1.5772 9.32431 1.5772ZM9.32431 1.44779C5.02935 1.44779 1.53527 4.94187 1.53527 9.23683C1.53527 13.5318 5.02935 17.0259 9.32431 17.0259C13.6193 17.0259 17.1134 13.5318 17.1134 9.23683C17.1134 4.94187 13.6193 1.44779 9.32431 1.44779Z" fill="var(--fill-0, #C0FFDC)"/>
<path id="Vector_6" d="M9.32333 16.9013C13.555 16.9013 16.9854 13.4709 16.9854 9.23926C16.9854 5.00761 13.555 1.57719 9.32333 1.57719C5.09168 1.57719 1.66125 5.00761 1.66125 9.23926C1.66125 13.4709 5.09168 16.9013 9.32333 16.9013Z" fill="url(#paint0_linear_0_55)"/>
<path id="Vector_7" d="M9.32333 16.9013C13.555 16.9013 16.9854 13.4709 16.9854 9.23926C16.9854 5.00761 13.555 1.57719 9.32333 1.57719C5.09168 1.57719 1.66125 5.00761 1.66125 9.23926C1.66125 13.4709 5.09168 16.9013 9.32333 16.9013Z" fill="url(#paint1_linear_0_55)"/>
<path id="Vector_8" d="M9.32475 16.5524C13.3636 16.5524 16.6377 13.2783 16.6377 9.23946C16.6377 5.20065 13.3636 1.92655 9.32475 1.92655C5.28594 1.92655 2.01184 5.20065 2.01184 9.23946C2.01184 13.2783 5.28594 16.5524 9.32475 16.5524Z" fill="var(--fill-0, #004530)"/>
<path id="Vector_9" d="M9.32475 2.05596C13.2852 2.05596 16.5083 5.27902 16.5083 9.23946C16.5083 13.1999 13.2852 16.423 9.32475 16.423C5.3643 16.423 2.14125 13.1999 2.14125 9.23946C2.14125 5.27902 5.3643 2.05596 9.32475 2.05596ZM9.32475 1.92655C5.28617 1.92655 2.01184 5.20088 2.01184 9.23946C2.01184 13.278 5.28617 16.5524 9.32475 16.5524C13.3633 16.5524 16.6377 13.278 16.6377 9.23946C16.6377 5.20088 13.3633 1.92655 9.32475 1.92655Z" fill="var(--fill-0, #002811)"/>
<g id="Group_2">
<path id="Vector_10" d="M6.28654 12.5819C5.82262 12.5819 5.37335 12.5209 4.93873 12.3988C4.50655 12.2767 4.15006 12.118 3.86926 11.9251L4.47235 10.3551C4.73606 10.5309 5.0315 10.6725 5.35625 10.7799C5.681 10.8874 5.99598 10.9386 6.30363 10.9386C6.48188 10.9386 6.6235 10.924 6.72849 10.8971C6.83104 10.8703 6.90674 10.8312 6.95314 10.7775C6.99953 10.7238 7.02394 10.6627 7.02394 10.5895C7.02394 10.4747 6.96778 10.3819 6.85791 10.316C6.74803 10.2501 6.60153 10.1915 6.4184 10.1475C6.23527 10.1036 6.03749 10.0523 5.82018 10.001C5.60287 9.94976 5.38556 9.88139 5.16581 9.79593C4.94605 9.71047 4.74582 9.59815 4.5627 9.45898C4.37957 9.3198 4.23307 9.13423 4.12319 8.90715C4.01332 8.68007 3.95716 8.39439 3.95716 8.05255C3.95716 7.657 4.05238 7.29562 4.24528 6.97088C4.43817 6.64613 4.72629 6.38487 5.10964 6.18953C5.49298 5.9942 5.96913 5.89653 6.54049 5.89653C6.91651 5.89653 7.2852 5.94292 7.64902 6.03326C8.01283 6.1236 8.34002 6.26522 8.63059 6.45324L8.069 8.01593C7.79553 7.85722 7.52938 7.73757 7.273 7.65944C7.01662 7.5813 6.76756 7.53979 6.52339 7.53979C6.34271 7.53979 6.20109 7.55933 6.09609 7.59351C5.9911 7.63014 5.91541 7.67897 5.87146 7.74001C5.82751 7.80106 5.80309 7.86698 5.80309 7.94023C5.80309 8.05011 5.85924 8.13557 5.96912 8.2015C6.079 8.26742 6.2255 8.3187 6.40863 8.36265C6.59175 8.40416 6.79198 8.45055 7.01173 8.49939C7.23149 8.54822 7.4488 8.61415 7.66611 8.6996C7.88342 8.78506 8.0812 8.89738 8.26433 9.03656C8.44746 9.17574 8.59396 9.35887 8.70384 9.5835C8.81371 9.80814 8.86987 10.0889 8.86987 10.4234C8.86987 10.8141 8.77464 11.1706 8.58175 11.4978C8.38885 11.825 8.10317 12.0863 7.72226 12.284C7.34136 12.4818 6.86523 12.5819 6.28898 12.5819H6.28654Z" fill="var(--fill-0, #0FFFB2)"/>
<path id="Vector_11" d="M12.2905 12.582C11.8462 12.582 11.4359 12.5014 11.0599 12.3403C10.6815 12.1791 10.3543 11.9496 10.0784 11.6517C9.8 11.3538 9.58513 10.9998 9.43374 10.592C9.28236 10.1842 9.20422 9.73253 9.20422 9.2393C9.20422 8.74608 9.27992 8.2968 9.43374 7.88904C9.58757 7.48127 9.80244 7.12723 10.0784 6.82934C10.3567 6.53145 10.6839 6.30193 11.0599 6.14078C11.4384 5.97962 11.8486 5.89905 12.2905 5.89905C12.835 5.89905 13.3161 6.00892 13.736 6.22868C14.156 6.44843 14.5027 6.76585 14.7786 7.1785L13.5993 8.39203C13.4357 8.15518 13.255 7.96961 13.0572 7.8402C12.8595 7.71079 12.6348 7.64487 12.3882 7.64487C12.1929 7.64487 12.0171 7.68149 11.8584 7.75474C11.6996 7.828 11.5629 7.93543 11.4506 8.07461C11.3358 8.21378 11.2479 8.3847 11.1844 8.58248C11.121 8.78026 11.0892 9.00001 11.0892 9.24418C11.0892 9.48835 11.121 9.70811 11.1844 9.90589C11.2479 10.1037 11.3358 10.2721 11.4506 10.4138C11.5629 10.5529 11.6996 10.6604 11.8584 10.7336C12.0171 10.8069 12.1929 10.8435 12.3882 10.8435C12.6373 10.8435 12.8595 10.7776 13.0572 10.6482C13.255 10.5188 13.4357 10.3332 13.5993 10.0963L14.7786 11.3099C14.5052 11.7176 14.156 12.0326 13.736 12.2548C13.3161 12.477 12.835 12.5893 12.2905 12.5893V12.582Z" fill="var(--fill-0, #0FFFB2)"/>
</g>
<path id="Vector_12" opacity="0.71" d="M9.32399 0.129433C8.79658 0.129433 8.28138 0.173384 7.78083 0.258843V1.73363C8.27894 1.63108 8.79658 1.57736 9.32399 1.57736C9.8514 1.57736 10.369 1.63108 10.8671 1.73363V0.258843C10.3666 0.173384 9.8514 0.129433 9.32399 0.129433ZM1.81819 7.69628H0.343402C0.257942 8.19683 0.213984 8.71203 0.213984 9.23944C0.213984 9.76685 0.257942 10.282 0.343402 10.7826H1.81819C1.71564 10.2845 1.66191 9.76685 1.66191 9.23944C1.66191 8.71203 1.71564 8.19439 1.81819 7.69628ZM9.32399 16.9015C8.79658 16.9015 8.27894 16.8478 7.78083 16.7452V18.22C8.28138 18.3055 8.79658 18.3494 9.32399 18.3494C9.8514 18.3494 10.3666 18.3055 10.8671 18.22V16.7452C10.369 16.8478 9.8514 16.9015 9.32399 16.9015ZM14.581 1.79956L13.5408 2.84217C14.4076 3.41353 15.1499 4.15581 15.7213 5.02261L16.7639 3.98245C16.1657 3.13761 15.4258 2.39778 14.581 1.79956ZM18.3046 7.69628H16.8298C16.9323 8.19439 16.9861 8.71203 16.9861 9.23944C16.9861 9.76685 16.9323 10.2845 16.8298 10.7826H18.3046C18.39 10.282 18.434 9.76685 18.434 9.23944C18.434 8.71203 18.39 8.19683 18.3046 7.69628ZM15.7213 13.4563C15.1499 14.3231 14.4052 15.0653 13.5384 15.6367L14.581 16.6793C15.4258 16.0835 16.1657 15.3437 16.7639 14.4989L15.7213 13.4563ZM2.92672 13.4563L1.88412 14.4989C2.48234 15.3437 3.21973 16.0811 4.06456 16.6793L5.10717 15.6367C4.24037 15.0653 3.49808 14.3231 2.92672 13.4563ZM4.06456 1.79956C3.21973 2.39778 2.47989 3.13761 1.88412 3.98245L2.92672 5.02505C3.49808 4.15825 4.24037 3.41353 5.10717 2.84217L4.06456 1.79956Z" fill="var(--fill-0, #00492F)"/>
</g>
<defs>
<linearGradient id="paint0_linear_0_55" x1="9.32333" y1="16.9013" x2="9.32333" y2="1.57719" gradientUnits="userSpaceOnUse">
<stop stop-color="#FFDD15"/>
<stop offset="0.87" stop-color="#FF9102"/>
</linearGradient>
<linearGradient id="paint1_linear_0_55" x1="9.32333" y1="16.9013" x2="9.32333" y2="1.57719" gradientUnits="userSpaceOnUse">
<stop stop-color="#0BB373"/>
<stop offset="0.87" stop-color="#008565"/>
</linearGradient>
</defs>
</svg>
